<svg width="27" height="23" viewBox="0 0 27 23" fill="none" xmlns="http://www.w3.org/2000/svg">
<path d="M21.5 17.1201H9.39625C8.92788 17.12 8.47438 16.9875 8.11483 16.7455C7.75527 16.5036 7.51247 16.1676 7.42875 15.7962L4.09125 1H1" stroke="#FA9589" stroke-width="2" stroke-linecap="round" stroke-linejoin="round"/>
<path d="M9.5 21.1501C10.8807 21.1501 12 20.2479 12 19.1351C12 18.0222 10.8807 17.1201 9.5 17.1201C8.11929 17.1201 7 18.0222 7 19.1351C7 20.2479 8.11929 21.1501 9.5 21.1501Z" stroke="#FA9589" stroke-width="2" stroke-linecap="round" stroke-linejoin="round"/>
<path d="M21.5 21.1501C22.8807 21.1501 24 20.2479 24 19.1351C24 18.0222 22.8807 17.1201 21.5 17.1201C20.1193 17.1201 19 18.0222 19 19.1351C19 20.2479 20.1193 21.1501 21.5 21.1501Z" stroke="#FA9589" stroke-width="2" stroke-linecap="round" stroke-linejoin="round"/>
<path d="M6.81875 13.0901H22.5125C22.9809 13.09 23.4344 12.9574 23.7939 12.7155C24.1535 12.4736 24.3963 12.1376 24.48 11.7662L26 5.03002H5" stroke="#FA9589" stroke-width="2" stroke-linecap="round" stroke-linejoin="round"/>
</svg>
