<svg width="11" height="10" viewBox="0 0 11 10" fill="none" xmlns="http://www.w3.org/2000/svg">
<path d="M4.92346 4.99487L7.4235 2.97974" stroke="#1E2952" stroke-linecap="round" stroke-linejoin="round"/>
<path d="M10.4856 0.89411C10.5041 0.841078 10.5048 0.785022 10.4875 0.731711C10.4703 0.678401 10.4357 0.629762 10.3873 0.590803C10.339 0.551843 10.2787 0.52397 10.2125 0.510053C10.1464 0.496136 10.0768 0.496678 10.0111 0.511622L0.780153 2.7678C0.704791 2.78494 0.637715 2.82022 0.587893 2.86891C0.53807 2.91761 0.507875 2.9774 0.501341 3.0403C0.494808 3.1032 0.512249 3.1662 0.551332 3.2209C0.590415 3.27559 0.649279 3.31937 0.720056 3.34637L4.92348 4.99491L6.9687 8.38266C7.00221 8.43971 7.05652 8.48716 7.12437 8.51866C7.19223 8.55016 7.2704 8.56422 7.34843 8.55895C7.42646 8.55369 7.50064 8.52935 7.56106 8.48919C7.62147 8.44903 7.66523 8.39496 7.6865 8.33422L10.4856 0.89411Z" stroke="#1E2952" stroke-linecap="round" stroke-linejoin="round"/>
</svg>
